<svg id="b211de30-92c3-4209-b250-f5e51c114ee0" data-name="Layer 1" xmlns="http://www.w3.org/2000/svg" width="48" height="48" viewBox="0 0 48 48">
  <title>key</title>
  <g>
    <path d="M32.67,3.33A13.29,13.29,0,0,0,19.82,20.18l-3.15,3.15L18,24.67h-.17L3,39.33v5.33L4.67,46H10l1.33-1.17L10,41h2.67L14,39.33V37h3V34h5l2.67-2.67L26,32.67l3.15-3.15A13.33,13.33,0,1,0,32.67,3.33ZM35.33,18a4,4,0,1,1,4-4A4,4,0,0,1,35.33,18Z" style="fill: #ed9700"/>
    <path d="M31.33,2A13.29,13.29,0,0,0,18.48,18.85L15.33,22l1.34,1.34h0L2,38v5.33L3.33,45H8.67L10,43.33,8.67,39h2.67L13,38V35h2V33h5.67l2.67-2.83,1.33,1.25,3.15-3.19A13.35,13.35,0,1,0,31.33,2ZM34,16.67a4,4,0,1,1,4-4A4,4,0,0,1,34,16.67Z" style="fill: #ffce00"/>
    <g>
      <polygon points="13 35 13 38 15.33 35 13 35" style="fill: #ed9700"/>
      <polygon points="15 33 15 35.33 18 33 15 33" style="fill: #ed9700"/>
      <polygon points="8.67 39 9.33 41 11.33 39 8.67 39" style="fill: #ed9700"/>
      <polygon points="18 26 2.01 42 2 43.33 2.67 44 19.33 27.33 18 26" style="fill: #ed9700"/>
      <polygon points="18 33 20.67 33 23.33 30.17 22 28.92 18 33" style="fill: #ffc200"/>
      <polygon points="6 45 8.67 45 10 43.5 9.33 41.58 6 45" style="fill: #ffc200"/>
    </g>
  </g>
</svg>
